HIERARCHY
ROOT Hips
{
    OFFSET 0.000000 0.000000 0.000000
    CHANNELS 6 Xposition Yposition Zposition Zrotation Xrotation Yrotation
    JOINT Spine
    {
        OFFSET -0.000000 14.517291 0.000000
        CHANNELS 3 Zrotation Xrotation Yrotation
        JOINT Spine1
        {
            OFFSET -0.000000 37.558300 0.000000
            CHANNELS 3 Zrotation Xrotation Yrotation
            JOINT Neck
            {
                OFFSET -0.000000 37.404057 3.400369
                CHANNELS 3 Zrotation Xrotation Yrotation
                JOINT Head
                {
                    OFFSET -0.000000 24.785618 -3.540803
                    CHANNELS 3 Zrotation Xrotation Yrotation
                    End Site
                    {
                        OFFSET -0.000000 35.408028 0.000000
                    }
                }
            }
            JOINT LeftShoulder
            {
                OFFSET 6.992933 33.973492 -0.192664
                CHANNELS 3 Zrotation Xrotation Yrotation
                JOINT LeftArm
                {
                    OFFSET 21.527611 0.000000 0.000000
                    CHANNELS 3 Zrotation Xrotation Yrotation
                    JOINT LeftForeArm
                    {
                        OFFSET 56.353916 0.000000 0.000000
                        CHANNELS 3 Zrotation Xrotation Yrotation
                        JOINT LeftHand
                        {
                            OFFSET 47.774071 0.000000 0.000000
                            CHANNELS 3 Zrotation Xrotation Yrotation
                            End Site
                            {
                                OFFSET 26.556021 0.000000 0.000000
                            }
                        }
                    }
                }
            }
            JOINT RightShoulder
            {
                OFFSET -7.065357 33.973492 -0.192664
                CHANNELS 3 Zrotation Xrotation Yrotation
                JOINT RightArm
                {
                    OFFSET -21.527611 0.000000 0.000000
                    CHANNELS 3 Zrotation Xrotation Yrotation
                    JOINT RightForeArm
                    {
                        OFFSET -56.353916 0.000000 0.000000
                        CHANNELS 3 Zrotation Xrotation Yrotation
                        JOINT RightHand
                        {
                            OFFSET -47.774071 0.000000 0.000000
                            CHANNELS 3 Zrotation Xrotation Yrotation
                            End Site
                            {
                                OFFSET -26.556021 0.000000 0.000000
                            }
                        }
                    }
                }
            }
        }
    }
    JOINT LeftUpLeg
    {
        OFFSET 17.704014 0.000000 0.000000
        CHANNELS 3 Zrotation Xrotation Yrotation
        JOINT LeftLeg
        {
            OFFSET -0.000000 -81.181816 0.000000
            CHANNELS 3 Zrotation Xrotation Yrotation
            JOINT LeftFoot
            {
                OFFSET -0.000000 -62.821102 0.000000
                CHANNELS 3 Zrotation Xrotation Yrotation
                JOINT LeftToeBase
                {
                    OFFSET -0.000000 -11.507608 26.556021
                    CHANNELS 3 Zrotation Xrotation Yrotation
                    End Site
                    {
                        OFFSET -0.000000 0.000000 7.081605
                    }
                }
            }
        }
    }
    JOINT RightUpLeg
    {
        OFFSET -17.704014 0.000000 0.000000
        CHANNELS 3 Zrotation Xrotation Yrotation
        JOINT RightLeg
        {
            OFFSET -0.000000 -81.181816 0.000000
            CHANNELS 3 Zrotation Xrotation Yrotation
            JOINT RightFoot
            {
                OFFSET -0.000000 -62.821102 0.000000
                CHANNELS 3 Zrotation Xrotation Yrotation
                JOINT RightToeBase
                {
                    OFFSET -0.000000 -11.507608 26.556021
                    CHANNELS 3 Zrotation Xrotation Yrotation
                    End Site
                    {
                        OFFSET -0.000000 0.000000 7.081605
                    }
                }
            }
        }
    }
}
MOTION
Frames:    10
Frame Time:    0.008333
-27.670679    152.596802    -31.556181    0.693651    2.133292    20.735714    -2.568289    3.243544    7.199024    -1.926804    -0.708650    2.364362    -4.429686    4.668021    -14.337043    15.404498    -8.464123    -11.177712    0.938781    4.521436    -8.423700    -37.023251    15.899765    -56.290436    -3.082738    -29.086357    -124.048264    -6.309316    -33.553631    -10.465870    0.625188    13.660383    -0.148347    37.668015    33.843643    53.638763    -8.826419    -25.397980    4.199607    18.654987    -20.998425    26.671530    -1.308578    -32.946846    -27.630054    -11.343081    23.681768    -23.780699    -9.494034    -0.468388    32.458340    0.000000    0.000000    0.000000    1.492376    8.074872    -22.856720    2.669765    25.365572    -5.363860    1.542064    -30.795370    -9.564625    0.000000    0.000000    0.000000    
-27.674931    152.596802    -31.556135    0.698305    2.133370    20.734976    -2.574786    3.245261    7.201779    -1.923816    -0.712795    2.365141    -4.428545    4.659592    -14.336123    15.394563    -8.472122    -11.177619    0.943843    4.521071    -8.415124    -37.036068    15.891331    -56.300697    -3.081249    -29.074776    -124.051231    -6.289678    -33.542599    -10.458200    0.625615    13.649951    -0.155003    37.659973    33.858067    53.651546    -8.838366    -25.422766    4.190402    18.641926    -21.027794    26.668402    -1.310996    -32.941986    -27.633102    -11.343081    23.673796    -23.760525    -9.499289    -0.467981    32.450489    0.000000    0.000000    0.000000    1.489521    8.078246    -22.846813    2.679875    25.361973    -5.363607    1.527045    -30.799227    -9.584427    0.000000    0.000000    0.000000    
-27.680689    152.595932    -31.560955    0.703573    2.143965    20.735983    -2.585936    3.241565    7.200077    -1.919647    -0.723902    2.364369    -4.425464    4.650326    -14.331378    15.381931    -8.473842    -11.175082    0.943267    4.515835    -8.414379    -37.034016    15.894042    -56.295570    -3.071358    -29.089401    -124.049828    -6.295291    -33.539707    -10.472841    0.626915    13.647422    -0.152023    37.662575    33.854950    53.654808    -8.846801    -25.426779    4.177606    18.659325    -21.027184    26.677309    -1.315892    -32.949608    -27.640285    -11.341767    23.665279    -23.769478    -9.515559    -0.467705    32.450710    0.000000    0.000000    0.000000    1.484477    8.069180    -22.850918    2.679543    25.358280    -5.354542    1.510789    -30.806932    -9.603817    0.000000    0.000000    0.000000    
-27.683861    152.594681    -31.560581    0.706680    2.143100    20.738934    -2.588879    3.237933    7.196542    -1.917753    -0.725738    2.363127    -4.416707    4.667328    -14.324855    15.372822    -8.509011    -11.167212    0.942228    4.513868    -8.413061    -37.045071    15.876935    -56.290688    -3.077569    -29.072054    -124.044250    -6.288943    -33.533016    -10.470067    0.628000    13.654527    -0.141869    37.650726    33.851082    53.664150    -8.852359    -25.455811    4.181553    18.648451    -21.059155    26.677450    -1.316338    -32.944580    -27.649225    -11.353044    23.652784    -23.726845    -9.505239    -0.460374    32.442104    0.000000    0.000000    0.000000    1.487329    8.077459    -22.862654    2.669654    25.345636    -5.369146    1.520349    -30.813812    -9.569060    0.000000    0.000000    0.000000    
-27.686543    152.591156    -31.562429    0.708394    2.149265    20.749685    -2.593725    3.225794    7.195024    -1.914610    -0.719240    2.362810    -4.414892    4.656039    -14.327175    15.366885    -8.510989    -11.170416    0.941771    4.511387    -8.412145    -37.023777    15.888842    -56.310654    -3.058031    -29.111795    -124.017876    -6.325458    -33.534130    -10.484646    0.632284    13.640837    -0.147007    37.658962    33.845718    53.656845    -8.847281    -25.463449    4.180651    18.618391    -21.076605    26.662155    -1.322651    -32.952847    -27.647200    -11.353752    23.656025    -23.737221    -9.520558    -0.469450    32.441776    0.000000    0.000000    0.000000    1.486081    8.080346    -22.879683    2.672494    25.332270    -5.368627    1.512196    -30.817474    -9.558461    0.000000    0.000000    0.000000    
-27.691763    152.589645    -31.561041    0.706203    2.145945    20.754908    -2.600336    3.217646    7.190616    -1.897749    -0.706749    2.361637    -4.417848    4.634427    -14.319907    15.361730    -8.504528    -11.163549    0.940286    4.501587    -8.408271    -37.042385    15.877807    -56.307507    -3.075380    -29.080851    -124.020241    -6.284711    -33.536167    -10.461456    0.629201    13.635727    -0.144857    37.644981    33.846470    53.670616    -8.859099    -25.470407    4.170935    18.646965    -21.076027    26.671766    -1.316898    -32.951794    -27.651295    -11.358298    23.653664    -23.708656    -9.528461    -0.474942    32.419853    0.000000    0.000000    0.000000    1.494696    8.086773    -22.891039    2.664685    25.324171    -5.383768    1.530188    -30.822784    -9.519894    0.000000    0.000000    0.000000    
-27.697966    152.588791    -31.564278    0.701395    2.150844    20.760498    -2.601326    3.211355    7.185454    -1.897136    -0.708508    2.359938    -4.413801    4.629491    -14.318789    15.363811    -8.512463    -11.161130    0.945260    4.498281    -8.403006    -37.044277    15.878618    -56.313774    -3.080323    -29.079449    -124.010345    -6.301387    -33.540001    -10.469974    0.633957    13.624892    -0.143453    37.660965    33.830627    53.661968    -8.841435    -25.466944    4.178177    18.598366    -21.086697    26.652443    -1.312103    -32.961994    -27.637766    -11.351379    23.656197    -23.738390    -9.545172    -0.472320    32.417534    0.000000    0.000000    0.000000    1.503628    8.086980    -22.897350    2.664512    25.305361    -5.375017    1.525566    -30.826561    -9.528831    0.000000    0.000000    0.000000    
-27.701998    152.586945    -31.559769    0.698950    2.150464    20.772221    -2.608684    3.194061    7.178057    -1.882630    -0.690751    2.357898    -4.427062    4.633794    -14.323145    15.385376    -8.529672    -11.157570    0.946334    4.496323    -8.408848    -37.038189    15.879621    -56.315098    -3.078261    -29.092155    -124.000511    -6.312560    -33.547207    -10.469927    0.629441    13.624743    -0.146664    37.644176    33.839367    53.686802    -8.867223    -25.487352    4.161717    18.612890    -21.102703    26.665352    -1.308301    -32.964218    -27.646976    -11.365116    23.651810    -23.724648    -9.538094    -0.470022    32.415447    0.000000    0.000000    0.000000    1.513500    8.097330    -22.898031    2.665649    25.288090    -5.362753    1.513753    -30.829021    -9.544500    0.000000    0.000000    0.000000    
-27.710697    152.585312    -31.561010    0.692448    2.152828    20.777512    -2.617139    3.185609    7.175086    -1.869704    -0.689023    2.356985    -4.434774    4.637910    -14.327519    15.408381    -8.543487    -11.154727    0.947666    4.489478    -8.414909    -37.036858    15.886135    -56.310291    -3.066907    -29.101286    -123.993599    -6.303754    -33.539005    -10.450075    0.630374    13.632070    -0.152386    37.630062    33.837456    53.703407    -8.872994    -25.492485    4.170730    18.609238    -21.108299    26.663441    -1.300692    -32.968323    -27.634789    -11.357481    23.650021    -23.725477    -9.545012    -0.477477    32.402344    0.000000    0.000000    0.000000    1.524534    8.100349    -22.882111    2.680257    25.267855    -5.388886    1.505620    -30.830421    -9.541640    0.000000    0.000000    0.000000    
-27.718607    152.586899    -31.560417    0.683650    2.159466    20.783089    -2.620735    3.169656    7.170634    -1.866944    -0.685236    2.355675    -4.430342    4.651831    -14.331593    15.425396    -8.570392    -11.152848    0.954851    4.491234    -8.424623    -37.047070    15.882137    -56.305317    -3.075816    -29.094814    -123.993103    -6.303291    -33.546524    -10.458580    0.637763    13.628589    -0.151074    37.631996    33.836292    53.705738    -8.880639    -25.494514    4.166074    18.616575    -21.109179    26.661182    -1.291556    -32.981892    -27.625084    -11.362957    23.654310    -23.727854    -9.547852    -0.475124    32.389889    0.000000    0.000000    0.000000    1.538888    8.101225    -22.864010    2.690510    25.242390    -5.396894    1.485962    -30.823133    -9.559394    0.000000    0.000000    0.000000    
